<svg xmlns="http://www.w3.org/2000/svg" xmlns:xlink="http://www.w3.org/1999/xlink" width="20" height="20" viewBox="0 0 20 20">
  <defs>
    <clipPath id="clip-path">
      <rect id="Rectangle_143" data-name="Rectangle 143" width="20" height="20" transform="translate(675 6687)" fill="#fff" stroke="#707070" stroke-width="1"/>
    </clipPath>
  </defs>
  <g id="Mask_Group_33" data-name="Mask Group 33" transform="translate(-675 -6687)" clip-path="url(#clip-path)">
    <g id="telephone-call" transform="translate(675 6687)">
      <path id="Path_1157" data-name="Path 1157" d="M21.709,17.4c-.624-.524-4.286-2.842-4.894-2.736-.286.051-.5.294-1.089.992a8.348,8.348,0,0,1-.889.962,7.684,7.684,0,0,1-1.7-.629A10.5,10.5,0,0,1,8.3,11.143a7.684,7.684,0,0,1-.629-1.7,8.348,8.348,0,0,1,.962-.889c.7-.585.941-.8.992-1.089.106-.61-2.214-4.27-2.736-4.894-.219-.259-.417-.432-.671-.432-.737,0-4.071,4.123-4.071,4.657,0,.044.071,4.336,5.492,9.851,5.515,5.421,9.807,5.492,9.851,5.492.534,0,4.657-3.334,4.657-4.071,0-.254-.174-.453-.434-.671Z" transform="translate(-2.143 -2.143)"/>
      <path id="Path_1158" data-name="Path 1158" d="M22.5,13.214h1.429A5.721,5.721,0,0,0,18.214,7.5V8.929A4.29,4.29,0,0,1,22.5,13.214Z" transform="translate(-7.5 -3.929)"/>
      <path id="Path_1159" data-name="Path 1159" d="M26.071,11.429H27.5a9.3,9.3,0,0,0-9.286-9.286V3.571A7.866,7.866,0,0,1,26.071,11.429Z" transform="translate(-7.5 -2.143)"/>
    </g>
  </g>
</svg>
