<svg xmlns="http://www.w3.org/2000/svg" xmlns:xlink="http://www.w3.org/1999/xlink" width="70" height="70" viewBox="0 0 70 70">
  <defs>
    <clipPath id="clip-path">
      <rect id="Rectangle_147" data-name="Rectangle 147" width="70" height="70" transform="translate(1145 2437)" fill="#f58220" stroke="#707070" stroke-width="1"/>
    </clipPath>
  </defs>
  <g id="Mask_Group_37" data-name="Mask Group 37" transform="translate(-1145 -2437)" clip-path="url(#clip-path)">
    <g id="certificate" transform="translate(1145 2437)">
      <path id="Path_1168" data-name="Path 1168" d="M54.14,29.126V4.75A4.755,4.755,0,0,0,49.39,0H10.767a4.755,4.755,0,0,0-4.75,4.75V55.4a4.755,4.755,0,0,0,4.75,4.75H39.922V67.81a2.189,2.189,0,0,0,3.273,1.9l6.571-3.755C57.022,70.1,56.643,70,57.421,70a2.188,2.188,0,0,0,2.187-2.187V52.9A14.22,14.22,0,0,0,54.14,29.126ZM10.767,55.779a.376.376,0,0,1-.375-.375V4.75a.376.376,0,0,1,.375-.375H49.39a.376.376,0,0,1,.375.375V28.436A14.211,14.211,0,0,0,39.922,52.9v2.875ZM55.234,64.04l-4.383-2.5a2.187,2.187,0,0,0-2.171,0L44.3,64.04V55.778a14.2,14.2,0,0,0,10.937,0V64.04ZM49.765,52.5a9.843,9.843,0,1,1,9.843-9.843A9.854,9.854,0,0,1,49.765,52.5Z" fill="#f58220"/>
      <path id="Path_1169" data-name="Path 1169" d="M48.669,48.26c-.854,0-.963-.2-4.492-2.555a2.187,2.187,0,0,1,2.427-3.64l1.461.974L51.226,38.3a2.187,2.187,0,0,1,3.64,2.427l-4.375,6.562a2.186,2.186,0,0,1-1.822.974Z" fill="#f58220"/>
      <path id="Path_1170" data-name="Path 1170" d="M37.734,15.312H19.141a2.187,2.187,0,0,1,0-4.375H37.734a2.187,2.187,0,1,1,0,4.375Z" fill="#f58220"/>
      <path id="Path_1171" data-name="Path 1171" d="M37.734,24.061H19.141a2.187,2.187,0,0,1,0-4.375H37.734a2.187,2.187,0,1,1,0,4.375Z" fill="#f58220"/>
      <path id="Path_1172" data-name="Path 1172" d="M30.078,32.811H19.141a2.187,2.187,0,1,1,0-4.375H30.078a2.187,2.187,0,1,1,0,4.375Z" fill="#f58220"/>
    </g>
  </g>
</svg>
