<svg xmlns="http://www.w3.org/2000/svg" xmlns:xlink="http://www.w3.org/1999/xlink" width="70" height="70" viewBox="0 0 70 70">
  <defs>
    <clipPath id="clip-path">
      <rect id="Rectangle_146" data-name="Rectangle 146" width="70" height="70" transform="translate(745 2558)" fill="#f58220" stroke="#707070" stroke-width="1"/>
    </clipPath>
  </defs>
  <g id="Mask_Group_36" data-name="Mask Group 36" transform="translate(-745 -2558)" clip-path="url(#clip-path)">
    <g id="planning" transform="translate(745 2558)">
      <g id="Group_492" data-name="Group 492">
        <g id="Group_491" data-name="Group 491">
          <path id="Path_1161" data-name="Path 1161" d="M65.9,45.472V6.152A6.159,6.159,0,0,0,59.746,0H14.492A6.159,6.159,0,0,0,8.34,6.152V8.34H6.152a6.152,6.152,0,0,0,0,12.3H8.34v8.2H6.152a6.152,6.152,0,0,0,0,12.3H8.34v8.2H6.152a6.152,6.152,0,0,0,0,12.3H8.34v2.051A6.325,6.325,0,0,0,10.11,68.1,6.026,6.026,0,0,0,14.492,70H55.645A14.445,14.445,0,0,0,65.9,45.472ZM6.152,16.543a2.051,2.051,0,0,1,0-4.1h4.238a2.051,2.051,0,0,1,0,4.1Zm0,20.508a2.051,2.051,0,0,1,0-4.1h4.238a2.051,2.051,0,0,1,0,4.1Zm4.238,20.508H6.152a2.051,2.051,0,0,1,0-4.1h4.238a2.051,2.051,0,0,1,0,4.1Zm4.1,8.34a2.178,2.178,0,0,1-2.051-2.187v-2.4a6.151,6.151,0,0,0,0-11.6V40.8a6.151,6.151,0,0,0,0-11.6V20.292a6.151,6.151,0,0,0,0-11.6V6.152A2.053,2.053,0,0,1,14.492,4.1H59.746A2.053,2.053,0,0,1,61.8,6.152V42.539A14.352,14.352,0,0,0,41.289,55.508,14.517,14.517,0,0,0,45.648,65.9Zm41.152,0A10.322,10.322,0,1,1,65.9,55.508,10.335,10.335,0,0,1,55.645,65.9Z" fill="#f58220"/>
        </g>
      </g>
      <g id="Group_494" data-name="Group 494">
        <g id="Group_493" data-name="Group 493">
          <path id="Path_1162" data-name="Path 1162" d="M55.645,16.543H43.34a2.051,2.051,0,0,0,0,4.1h12.3a2.051,2.051,0,0,0,0-4.1Z" fill="#f58220"/>
        </g>
      </g>
      <g id="Group_496" data-name="Group 496">
        <g id="Group_495" data-name="Group 495">
          <path id="Path_1163" data-name="Path 1163" d="M55.645,32.949H43.34a2.051,2.051,0,0,0,0,4.1h12.3a2.051,2.051,0,0,0,0-4.1Z" fill="#f58220"/>
        </g>
      </g>
      <g id="Group_498" data-name="Group 498">
        <g id="Group_497" data-name="Group 497">
          <path id="Path_1164" data-name="Path 1164" d="M59.746,53.457H57.7V51.406a2.051,2.051,0,0,0-4.1,0v4.1a2.051,2.051,0,0,0,2.051,2.051h4.1a2.051,2.051,0,0,0,0-4.1Z" fill="#f58220"/>
        </g>
      </g>
      <g id="Group_500" data-name="Group 500">
        <g id="Group_499" data-name="Group 499">
          <path id="Path_1165" data-name="Path 1165" d="M36.45,13.042a2.05,2.05,0,0,0-2.9,0L26.8,19.8l-3.228-3.228a2.051,2.051,0,0,0-2.9,2.9l4.678,4.678a2.051,2.051,0,0,0,2.9,0l8.2-8.2A2.051,2.051,0,0,0,36.45,13.042Z" fill="#f58220"/>
        </g>
      </g>
      <g id="Group_502" data-name="Group 502">
        <g id="Group_501" data-name="Group 501">
          <path id="Path_1166" data-name="Path 1166" d="M36.45,29.448a2.05,2.05,0,0,0-2.9,0L26.8,36.2l-3.228-3.228a2.051,2.051,0,0,0-2.9,2.9l4.678,4.678a2.051,2.051,0,0,0,2.9,0l8.2-8.2A2.051,2.051,0,0,0,36.45,29.448Z" fill="#f58220"/>
        </g>
      </g>
      <g id="Group_504" data-name="Group 504">
        <g id="Group_503" data-name="Group 503">
          <path id="Path_1167" data-name="Path 1167" d="M36.45,45.855a2.05,2.05,0,0,0-2.9,0L26.8,52.608,23.569,49.38a2.051,2.051,0,0,0-2.9,2.9l4.678,4.678a2.051,2.051,0,0,0,2.9,0l8.2-8.2A2.051,2.051,0,0,0,36.45,45.855Z" fill="#f58220"/>
        </g>
      </g>
    </g>
  </g>
</svg>
